<svg id="Capa_1" enable-background="new 0 0 512 512" height="512" viewBox="0 0 512 512" width="512" xmlns="http://www.w3.org/2000/svg" xmlns:xlink="http://www.w3.org/1999/xlink"><linearGradient id="SVGID_1_" gradientUnits="userSpaceOnUse" x1="256" x2="256" y1="468" y2="169.916"><stop offset="0" stop-color="#ffc2cc"/><stop offset="1" stop-color="#fff2f4"/></linearGradient><linearGradient id="SVGID_2_" gradientUnits="userSpaceOnUse" x1="256" x2="256" y1="512" y2="0"><stop offset="0" stop-color="#fd3a84"/><stop offset="1" stop-color="#ffa68d"/></linearGradient><g><g><g><path d="m473.442 273.977-175.966-100.553-76.813-3.508-182.105 104.061c-4.674 2.67-7.558 7.64-7.558 13.023l23 181 410-3.6 17-177.4c0-5.383-2.884-10.353-7.558-13.023z" fill="url(#SVGID_1_)"/></g></g><g><g><path d="m248.283 417.37-217.283-130.37v210c0 8.284 6.716 15 15 15h420c8.284 0 15-6.716 15-15v-210l-217.283 130.37c-4.75 2.85-10.684 2.85-15.434 0zm97.717 4.63h60c8.284 0 15 6.716 15 15s-6.716 15-15 15h-60c-8.284 0-15-6.716-15-15s6.716-15 15-15zm-137.992-143.542c7.429 6.333 15.109 12.88 23.157 19.869 2.821 2.449 6.328 3.674 9.835 3.674s7.014-1.225 9.835-3.674c8.048-6.988 15.729-13.536 23.157-19.869 49.989-42.616 86.108-73.406 86.108-117.058 0-38.815-27.574-71.4-66.9-71.4-19.233 0-37.272 8.545-52.199 24.428-14.928-15.883-32.967-24.428-52.2-24.428-39.275 0-66.9 32.531-66.9 71.4-.001 43.652 36.118 74.442 86.107 117.058zm190.25-156.11c2.381 1.435 5.062 2.152 7.742 2.152s5.361-.717 7.742-2.152c47.144-28.41 67.258-50.645 67.258-74.348 0-25.122-22.087-48-46.339-48-10.674 0-20.532 3.404-28.661 9.674-8.129-6.27-17.987-9.674-28.661-9.674-24.252 0-46.339 22.878-46.339 48 0 23.703 20.114 45.938 67.258 74.348z" fill="url(#SVGID_2_)"/></g></g></g></svg>