<svg id="Capa_1" enable-background="new 0 0 497 497" height="512" viewBox="0 0 497 497" width="512" xmlns="http://www.w3.org/2000/svg"><g><path d="m103.122 42.5v42.5l-11.322-5.33-8.678 5.33h-22.5c-11.74 0-22.36-4.76-30.05-12.45s-12.45-18.31-12.45-30.05c0-20.029 13.859-36.819 32.509-41.314 0 0 7.068-.281 10.509-.281 23.471-.001 41.982 18.125 41.982 41.595z" fill="#fc8086"/><path d="m107.63 39.415-4.508 45.585h-20v-42.5c0-20.03-13.851-36.824-32.491-41.314 3.201-.78 6.551-1.186 9.991-1.186h.01c.792 0 1.579.022 2.36.064 26.596-.064 44.638 16.673 44.638 39.351z" fill="#fb636f"/><path d="m393.122 42.5v451.723l-244.726 1.702c-23.47 0-40.851-19.679-40.851-43.149l.596-410.638c0-23.47-11.83-32.766-11.83-32.766l-14.872-9.372h269.194c23.469 0 42.489 19.03 42.489 42.5z" fill="#fa989e"/><path d="m165.622 497h-20c-23.47 0-42.5-19.03-42.5-42.5v-412c0-23.47-19.02-42.5-42.49-42.5h20c23.47 0 42.49 19.03 42.49 42.5v412c0 23.47 19.031 42.5 42.5 42.5z" fill="#fc8086"/><path d="m436.377 497c23.472 0 42.5-19.028 42.5-42.5 0-23.472-19.028-42.5-42.5-42.5h-271.263c-3.113 0-4.156 4.138-1.425 5.633 13.832 7.569 24.188 21.683 24.188 36.867 0 23.472-19.028 42.5-42.5 42.5z" fill="#fc8086"/><g><g><path d="m312.628 181.375h-130c-4.143 0-7.5-3.357-7.5-7.5s3.357-7.5 7.5-7.5h130c4.143 0 7.5 3.357 7.5 7.5s-3.358 7.5-7.5 7.5z" fill="#fc8086"/></g><g><g><path d="m352.628 211.375h-210c-4.143 0-7.5-3.357-7.5-7.5s3.357-7.5 7.5-7.5h210c4.143 0 7.5 3.357 7.5 7.5s-3.358 7.5-7.5 7.5z" fill="#fc8086"/></g></g><g><path d="m322.628 241.375h-180c-4.143 0-7.5-3.357-7.5-7.5s3.357-7.5 7.5-7.5h180c4.143 0 7.5 3.357 7.5 7.5s-3.358 7.5-7.5 7.5z" fill="#fc8086"/></g><g><path d="m352.628 271.375h-210c-4.143 0-7.5-3.357-7.5-7.5s3.357-7.5 7.5-7.5h210c4.143 0 7.5 3.357 7.5 7.5s-3.358 7.5-7.5 7.5z" fill="#fc8086"/></g><g><path d="m352.628 301.375h-210c-4.143 0-7.5-3.357-7.5-7.5s3.357-7.5 7.5-7.5h210c4.143 0 7.5 3.357 7.5 7.5s-3.358 7.5-7.5 7.5z" fill="#fc8086"/></g><g><path d="m217.628 331.375h-75c-4.143 0-7.5-3.357-7.5-7.5s3.357-7.5 7.5-7.5h75c4.143 0 7.5 3.357 7.5 7.5s-3.358 7.5-7.5 7.5z" fill="#fc8086"/></g><g><path d="m202.628 361.375h-60c-4.143 0-7.5-3.357-7.5-7.5s3.357-7.5 7.5-7.5h60c4.143 0 7.5 3.357 7.5 7.5s-3.358 7.5-7.5 7.5z" fill="#fc8086"/></g></g><g><path d="m249.928 137.202c-1.172 1.172-3.071 1.172-4.243 0l-33.545-34.894c-10.236-10.236-13.343-25.125-3.106-35.362 4.143-4.143 13.8-8.543 13.8-8.543 7.918-1.161 16.265 1.305 22.358 7.398l1.021 1.021c.781.781 2.047.781 2.828 0l1.021-1.021c10.237-10.236 26.832-10.236 37.069 0 10.236 10.236 10.236 26.833 0 37.069l-26.004 26.004z" fill="#f5f8f9"/></g><g><path d="m261.128 128.875-11.375 11.375c-1.18 1.18-3.07 1.18-4.25 0l-37.38-37.38c-10.24-10.24-10.24-26.83 0-37.07 4.14-4.14 9.322-6.616 14.712-7.396-7.89 10.27-7.122 25.056 2.288 34.466z" fill="#e8edf2"/></g></g></svg>