<?xml version="1.0" standalone="no"?>
<!DOCTYPE svg PUBLIC "-//W3C//DTD SVG 20010904//EN"
 "http://www.w3.org/TR/2001/REC-SVG-20010904/DTD/svg10.dtd">
<svg version="1.0" xmlns="http://www.w3.org/2000/svg"
 width="700.000000pt" height="700.000000pt" viewBox="0 0 700.000000 700.000000"
 preserveAspectRatio="xMidYMid meet">
<metadata>
Created by potrace 1.11, written by Peter Selinger 2001-2013
</metadata>
<g transform="translate(0.000000,700.000000) scale(0.100000,-0.100000)"
fill="#000000" stroke="none">
<path d="M4928 6725 c-2 -2 -45 -6 -97 -9 -126 -8 -306 -28 -372 -41 -13 -3
-50 -10 -82 -15 -32 -6 -93 -20 -135 -31 -42 -11 -84 -22 -92 -24 -144 -34
-415 -150 -528 -226 -24 -16 -45 -29 -48 -29 -2 0 -34 -21 -72 -47 -61 -42
-114 -83 -321 -251 -156 -127 -362 -374 -438 -527 -39 -77 -124 -428 -243
-1005 -5 -25 -12 -56 -15 -70 -3 -14 -8 -36 -11 -50 -12 -62 -71 -305 -125
-520 -33 -129 -61 -244 -63 -255 -4 -20 -64 -271 -110 -458 -13 -54 -25 -100
-28 -102 -2 -2 -29 -11 -59 -19 -43 -11 -104 -13 -299 -9 -434 9 -478 8 -543
-17 -53 -20 -57 -24 -53 -48 2 -15 5 -32 5 -39 1 -7 27 -20 59 -29 57 -17 167
-19 692 -10 164 2 154 9 146 -88 -4 -45 -15 -119 -25 -166 -31 -140 -61 -283
-66 -312 -3 -14 -17 -80 -31 -145 -14 -65 -34 -161 -44 -213 -11 -52 -33 -160
-50 -240 -18 -80 -45 -208 -61 -285 -35 -166 -32 -154 -57 -230 -19 -57 -28
-82 -58 -151 -8 -17 -17 -40 -21 -50 -17 -43 -152 -232 -208 -292 -104 -112
-249 -201 -372 -226 -62 -13 -307 -15 -358 -3 -11 3 -33 8 -50 13 -61 14 -153
95 -215 187 -25 37 -53 100 -72 160 -41 129 -61 159 -118 173 -75 18 -100 -8
-100 -102 0 -37 99 -243 166 -346 97 -145 208 -223 339 -235 39 -4 147 -7 240
-6 187 0 249 10 489 78 208 58 401 169 541 309 104 105 176 219 262 416 35 79
133 381 147 452 2 13 18 82 35 153 33 143 71 326 77 365 1 14 21 115 44 225
23 110 42 209 44 220 2 11 6 29 9 40 3 11 8 36 11 55 3 19 8 46 10 60 2 14 7
48 11 75 8 64 27 93 73 113 33 14 173 16 1360 16 l1322 1 0 -21 c0 -11 -4 -45
-9 -75 -6 -30 -13 -76 -16 -104 -8 -69 -15 -115 -20 -145 -3 -14 -7 -45 -10
-70 -8 -71 -15 -123 -20 -150 -3 -14 -7 -43 -10 -65 -12 -106 -37 -251 -61
-355 -19 -82 -60 -287 -73 -365 -25 -146 -29 -193 -36 -360 -3 -77 -7 -149
-10 -160 -4 -19 -17 -144 -20 -194 -5 -94 32 -211 87 -271 38 -41 176 -159
218 -185 76 -48 164 -69 290 -69 131 1 208 16 348 70 172 66 218 100 315 229
12 16 40 50 63 75 50 56 235 390 244 443 6 32 4 42 -14 58 -71 66 -134 10
-236 -211 -52 -112 -103 -184 -201 -280 -103 -102 -138 -116 -295 -119 l-99
-2 -46 63 c-48 66 -64 103 -74 178 -6 48 -7 242 -1 275 3 19 7 49 21 155 4 25
8 56 10 70 28 173 37 229 40 253 2 15 6 44 9 65 3 20 8 64 11 97 11 105 34
224 89 465 85 367 106 491 106 617 l0 52 38 8 c20 4 154 7 297 6 296 -2 350 6
349 47 -3 91 -1 87 -51 101 -33 9 -128 14 -303 15 -140 1 -262 2 -271 3 -14 1
-15 8 -4 74 7 39 16 95 20 122 11 75 13 87 19 120 3 17 8 53 11 80 4 28 8 57
10 65 2 8 7 38 11 65 3 28 8 59 10 70 2 11 22 137 45 280 22 143 42 274 45
290 3 17 7 46 10 65 2 19 8 60 14 90 5 30 11 71 14 90 10 77 28 196 32 220 7
41 25 168 43 300 10 70 14 101 26 198 2 20 7 69 10 107 3 39 8 81 10 95 7 43
17 219 19 355 4 189 -21 318 -87 450 -140 283 -444 470 -851 522 -41 5 -503
12 -508 8z m132 -105 c135 -21 274 -60 359 -100 220 -105 406 -408 438 -712
10 -93 9 -366 -1 -483 -7 -84 -9 -105 -21 -195 -3 -19 -8 -53 -10 -75 -3 -22
-8 -51 -10 -65 -3 -14 -7 -43 -11 -65 -3 -22 -7 -47 -9 -55 -2 -8 -7 -31 -10
-50 -19 -111 -55 -285 -127 -610 -44 -201 -82 -378 -84 -395 -3 -16 -7 -37
-10 -45 -3 -8 -8 -33 -11 -55 -5 -38 -25 -146 -36 -193 -3 -12 -12 -48 -20
-80 -16 -61 -23 -104 -32 -193 -3 -31 -18 -89 -34 -130 l-28 -74 -1362 -3
-1361 -2 0 44 c0 24 6 62 14 84 8 22 17 57 20 79 13 78 15 99 21 148 2 28 12
86 20 129 8 44 18 92 20 107 3 16 11 58 19 94 7 36 12 65 9 65 -2 0 4 12 14
28 35 51 52 106 88 287 19 99 37 189 40 200 2 11 18 92 35 180 18 88 33 167
35 175 9 42 57 278 61 300 2 14 7 36 9 50 3 14 8 39 11 55 3 17 9 46 14 65 5
19 11 49 14 65 36 206 122 421 226 570 27 39 65 93 84 120 97 143 418 406 651
536 202 112 435 190 630 211 63 7 273 0 345 -12z"/>
</g>
</svg>
