<?xml version="1.0" encoding="utf-8"?>
<!-- Generator: Adobe Illustrator 23.0.3, SVG Export Plug-In . SVG Version: 6.00 Build 0)  -->
<svg
        version="1.1"
        id="Warstwa_1"
        xmlns="http://www.w3.org/2000/svg" xmlns:xlink="http://www.w3.org/1999/xlink"
        x="0px"
        y="0px"
        viewBox="0 0 70.5 69"
        style="enable-background:new 0 0 70.5 69;" xml:space="preserve">
<style type="text/css">
	.st0{fill:#3b5998;}
</style>
    <path
            class="st0"
            d="M46.4,66.3c0-8.3,0-16.6,0-24.9c2.8,0,5.5,0,8.4,0c0.4-3.3,0.9-6.5,1.3-9.9c-0.4,0-0.8-0.1-1.2-0.1
	c-2.5,0-5,0-7.5,0c-0.7,0-1.1-0.2-1-1c0.1-2.2,0-4.5,0.2-6.7c0.2-1.8,1.4-2.8,3.2-2.9c1.8-0.1,3.7-0.1,5.5-0.1
	c0.8,0,1.2-0.2,1.2-1.1c-0.1-2.3,0-4.7,0-7c0-0.4,0.1-0.9-0.6-1c-3.7-0.3-7.4-0.8-11.1,0.2C40,13,37.1,16.2,36.4,21
	c-0.4,2.9-0.3,5.9-0.4,8.9c0,1.5,0,1.5-1.5,1.5c-2,0-4,0-6,0c-0.7,0-1.1,0.2-1.1,1c0,2.7,0,5.4,0,8.1c0,0.8,0.2,1,1,0.9
	c2.2,0,4.4,0,6.7,0c0.6,0,0.9,0.2,0.9,0.8c0,7.8,0,15.6,0,23.4c0,0.7-0.2,0.8-0.9,0.8c-10,0-20,0-30,0c-2.1,0-3.6-1.5-3.6-3.6
	c0-19.2,0-38.3,0-57.5c0-2.1,1.5-3.6,3.7-3.6c19.1,0,38.3,0,57.4,0c2.2,0,3.7,1.5,3.7,3.7c0,19.1,0,38.2,0,57.3
	c0,2.1-1.5,3.7-3.5,3.7c-5.3,0-10.6,0-15.9,0C46.8,66.4,46.7,66.3,46.4,66.3z"/>
</svg>
