<svg
        fill="#3b5998"
        height="430pt"
        viewBox="0 -14 430.08 430"
        width="430pt"
        xmlns="http://www.w3.org/2000/svg">
    <path d="m232.105469 293.585938c-1.71875 0-3.414063-.652344-4.710938-1.886719l-48.089843-45.898438h-150.835938c-15.699219 0-28.46875-12.773437-28.46875-28.46875v-188.824219c0-15.695312 12.769531-28.4687495 28.46875-28.4687495h263.917969c15.695312 0 28.464843 12.7734375 28.464843 28.4687495v168.347657c0 3.773437-3.054687 6.824219-6.824218 6.824219-3.769532 0-6.828125-3.050782-6.828125-6.824219v-168.347657c0-8.167968-6.648438-14.816406-14.8125-14.816406h-263.917969c-8.167969 0-14.816406 6.648438-14.816406 14.816406v188.824219c0 8.167969 6.648437 14.816407 14.816406 14.816407h153.574219c1.757812 0 3.445312.671874 4.714843 1.882812l38.523438 36.773438v-31.832032c0-3.773437 3.054688-6.824218 6.824219-6.824218h38.613281c3.769531 0 6.828125 3.050781 6.828125 6.824218 0 3.773438-3.058594 6.828125-6.828125 6.828125h-31.785156v40.960938c0 2.730469-1.628906 5.199219-4.140625 6.273437-.867188.371094-1.78125.550782-2.6875.550782zm0 0"/>
    <path d="m423.253906 402.8125h-177.492187c-3.773438 0-6.828125-3.050781-6.828125-6.824219v-22.226562c0-19.089844 21.109375-32.386719 40.058594-32.386719h24.207031c3.769531 0 6.824219 3.050781 6.824219 6.824219 0 3.773437-3.054688 6.828125-6.824219 6.828125h-24.207031c-13.328126 0-26.40625 9.28125-26.40625 18.734375v15.398437h163.839843v-18.328125c0-7.980469-11.386719-15.804687-22.988281-15.804687h-29.453125c-3.773437 0-6.828125-3.054688-6.828125-6.828125 0-3.773438 3.054688-6.824219 6.828125-6.824219h29.453125c17.332031 0 36.640625 12.097656 36.640625 29.457031v25.15625c0 3.773438-3.054687 6.824219-6.824219 6.824219zm0 0"/>
    <path d="m395.953125 297c-.1875 0-.375-.007812-.5625-.019531-3.761719-.316407-6.558594-3.605469-6.246094-7.367188l3.414063-41.667969c-.023438-23.519531-18.214844-43.105468-40.570313-43.105468h-34.960937c-22.359375 0-40.546875 19.585937-40.546875 43.667968l3.390625 41.105469c.308594 3.761719-2.488282 7.054688-6.25 7.367188-3.773438.351562-7.046875-2.488281-7.355469-6.246094l-3.414063-41.667969c-.023437-32.167968 24.289063-57.878906 54.175782-57.878906h34.960937c29.886719 0 54.199219 25.710938 54.199219 57.320312l-3.4375 42.226563c-.292969 3.566406-3.277344 6.265625-6.796875 6.265625zm0 0"/>
    <path d="m334.507812 361.851562c-19.695312 0-37.570312-7.285156-47.820312-19.5-12.421875-14.8125-20.449219-35.40625-20.449219-52.464843v-27.511719c0-11.609375.265625-18.320312 5.664063-21.300781 4.824218-2.679688 9.375.191406 13.390625 2.71875 5.335937 3.367187 13.40625 8.449219 26.578125 8.449219 10.632812 0 23.425781-3.253907 35.792968-6.394532 19.984376-5.074218 37.234376-9.464844 47.660157-1.351562 4.941406 3.84375 7.449219 9.859375 7.449219 17.878906v27.511719c0 17.0625-8.027344 37.652343-20.449219 52.46875-10.246094 12.210937-28.125 19.496093-47.816407 19.496093zm-54.539062-105.285156c-.042969 1.527344-.074219 3.429688-.074219 5.808594v27.511719c0 13.828125 6.933594 31.386719 17.253907 43.695312 7.570312 9.019531 21.886718 14.617188 37.359374 14.617188 15.472657 0 29.785157-5.597657 37.355469-14.617188 10.320313-12.308593 17.257813-29.867187 17.257813-43.695312v-27.511719c0-3.589844-.734375-5.980469-2.179688-7.101562-5.15625-4.019532-21.496094.148437-35.914062 3.804687-13.183594 3.347656-26.808594 6.816406-39.15625 6.816406-15.363282 0-25.710938-5.527343-31.902344-9.328125zm0 0"/>
    <path d="m170.667969 191.1875h-27.308594v-114.160156c0-19.867188 16.164063-36.027344 36.03125-36.027344h11.757813v27.308594h-11.757813c-4.8125 0-8.722656 3.910156-8.722656 8.71875zm0 0"/>
    <path d="m122.878906 95.613281h68.269532v27.308594h-68.269532zm0 0"/>
</svg>
